# xmcd
#
# Track frame offsets:
#	150
#	18115
#	30932
#	49302
#	66042
#	97545
#	116245
#	133637
#	145855
#	157965
#	169367
#	180755
#	200237
#	216152
#
# Disc length: 3109 seconds
#
# Revision: 0
# Processed by: cddbd v1.4b42PL0 Copyright (c) Steve Scherf et al.
# Submitted via: audiograbber 1.80
#
DISCID=b80c230e
DTITLE=Various Artists - Emotions Country
DYEAR=1900
DGENRE=
TTITLE0=For The Good Times
TTITLE1=The Most beautiful Girl In The World
TTITLE2=I'll Never Fall In Love Again
TTITLE3=Crying
TTITLE4=Lyin Eyes
TTITLE5=She Believes In Me
TTITLE6=Always On My Mind
TTITLE7=Don't It Make My Brown Eyes Blue
TTITLE8=Cathy's Clown 
TTITLE9=It's Only Make Believe
TTITLE10=Help Me Make It Through The Night
TTITLE11=I Can't Stop Loving You
TTITLE12=Stand By Your Man
TTITLE13=You Needed Me
EXTD=
EXTT0=
EXTT1=
EXTT2=
EXTT3=
EXTT4=
EXTT5=
EXTT6=
EXTT7=
EXTT8=
EXTT9=
EXTT10=
EXTT11=
EXTT12=
EXTT13=
PLAYORDER=
